<mxfile host="app.diagrams.net" agent="Mozilla/5.0 (X11; CrOS x86_64 14541.0.0) AppleWebKit/537.36 (KHTML, like Gecko) Chrome/132.0.0.0 Safari/537.36" version="26.0.11">
  <diagram name="Page-1" id="bMRx2aX1rceCbncTGs0M">
    <mxGraphModel dx="1900" dy="2722" grid="1" gridSize="10" guides="1" tooltips="1" connect="1" arrows="1" fold="1" page="1" pageScale="1" pageWidth="850" pageHeight="1100" math="0" shadow="0">
      <root>
        <mxCell id="0" />
        <mxCell id="1" parent="0" />
        <mxCell id="-MO_qpmcJv61bsnb8XOe-45" value="" style="edgeStyle=orthogonalEdgeStyle;rounded=0;orthogonalLoop=1;jettySize=auto;html=1;" parent="1" source="-MO_qpmcJv61bsnb8XOe-37" target="-MO_qpmcJv61bsnb8XOe-44" edge="1">
          <mxGeometry relative="1" as="geometry" />
        </mxCell>
        <mxCell id="-MO_qpmcJv61bsnb8XOe-37" value="Start" style="strokeWidth=2;html=1;shape=mxgraph.flowchart.start_1;whiteSpace=wrap;" parent="1" vertex="1">
          <mxGeometry x="-720" y="-2120" width="160" height="80" as="geometry" />
        </mxCell>
        <mxCell id="-MO_qpmcJv61bsnb8XOe-49" style="edgeStyle=orthogonalEdgeStyle;rounded=0;orthogonalLoop=1;jettySize=auto;html=1;exitX=0.5;exitY=1;exitDx=0;exitDy=0;entryX=0.5;entryY=0;entryDx=0;entryDy=0;" parent="1" source="-MO_qpmcJv61bsnb8XOe-44" target="-MO_qpmcJv61bsnb8XOe-47" edge="1">
          <mxGeometry relative="1" as="geometry" />
        </mxCell>
        <mxCell id="-MO_qpmcJv61bsnb8XOe-44" value="statement &amp;lt;-- &quot;Hello, world!&quot;" style="whiteSpace=wrap;html=1;strokeWidth=2;" parent="1" vertex="1">
          <mxGeometry x="-740" y="-2000" width="200" height="80" as="geometry" />
        </mxCell>
        <mxCell id="-MO_qpmcJv61bsnb8XOe-54" style="edgeStyle=orthogonalEdgeStyle;rounded=0;orthogonalLoop=1;jettySize=auto;html=1;exitX=1;exitY=0.5;exitDx=0;exitDy=0;" parent="1" source="-MO_qpmcJv61bsnb8XOe-47" edge="1">
          <mxGeometry relative="1" as="geometry">
            <mxPoint x="-510" y="-1840" as="targetPoint" />
          </mxGeometry>
        </mxCell>
        <mxCell id="-MO_qpmcJv61bsnb8XOe-47" value="PUT statement" style="shape=parallelogram;html=1;strokeWidth=2;perimeter=parallelogramPerimeter;whiteSpace=wrap;rounded=1;arcSize=0;size=0.23;" parent="1" vertex="1">
          <mxGeometry x="-730" y="-1880" width="180" height="80" as="geometry" />
        </mxCell>
        <mxCell id="-MO_qpmcJv61bsnb8XOe-52" value="End" style="strokeWidth=2;html=1;shape=mxgraph.flowchart.start_1;whiteSpace=wrap;" parent="1" vertex="1">
          <mxGeometry x="-720" y="-1760" width="160" height="80" as="geometry" />
        </mxCell>
        <mxCell id="-MO_qpmcJv61bsnb8XOe-53" style="edgeStyle=orthogonalEdgeStyle;rounded=0;orthogonalLoop=1;jettySize=auto;html=1;exitX=0.5;exitY=1;exitDx=0;exitDy=0;entryX=0.5;entryY=0;entryDx=0;entryDy=0;entryPerimeter=0;" parent="1" source="-MO_qpmcJv61bsnb8XOe-47" target="-MO_qpmcJv61bsnb8XOe-52" edge="1">
          <mxGeometry relative="1" as="geometry" />
        </mxCell>
        <mxCell id="-MO_qpmcJv61bsnb8XOe-55" value="Author: Moniquia Hicks&lt;div&gt;Date: 1/24/2025&lt;/div&gt;&lt;div&gt;Program: HelloWorld.draw.io&lt;/div&gt;&lt;div&gt;Version: 1.0&lt;/div&gt;" style="shape=note;whiteSpace=wrap;html=1;backgroundOutline=1;fontColor=#000000;darkOpacity=0.05;fillColor=#FFF9B2;strokeColor=none;fillStyle=solid;direction=west;gradientDirection=north;gradientColor=#FFF2A1;shadow=1;size=20;pointerEvents=1;" parent="1" vertex="1">
          <mxGeometry x="-480" y="-2160" width="185" height="90" as="geometry" />
        </mxCell>
        <mxCell id="-MO_qpmcJv61bsnb8XOe-56" value="initialization" style="shape=note;whiteSpace=wrap;html=1;backgroundOutline=1;fontColor=#000000;darkOpacity=0.05;fillColor=#FFF9B2;strokeColor=none;fillStyle=solid;direction=west;gradientDirection=north;gradientColor=#FFF2A1;shadow=1;size=20;pointerEvents=1;" parent="1" vertex="1">
          <mxGeometry x="-457.5" y="-1980" width="140" height="40" as="geometry" />
        </mxCell>
        <mxCell id="-MO_qpmcJv61bsnb8XOe-57" value="output information" style="shape=note;whiteSpace=wrap;html=1;backgroundOutline=1;fontColor=#000000;darkOpacity=0.05;fillColor=#FFF9B2;strokeColor=none;fillStyle=solid;direction=west;gradientDirection=north;gradientColor=#FFF2A1;shadow=1;size=20;pointerEvents=1;" parent="1" vertex="1">
          <mxGeometry x="-457.5" y="-1860" width="157.5" height="40" as="geometry" />
        </mxCell>
      </root>
    </mxGraphModel>
  </diagram>
</mxfile>
